<svg width="57" height="57" viewBox="0 0 57 57" fill="none" xmlns="http://www.w3.org/2000/svg">
<path d="M9.02502 52.25H7.12502V47.5H9.02502C10.925 47.5 12.7364 47.2926 14.459 46.8778C16.1817 46.4629 18.111 45.7995 20.2469 44.8875C21.7511 45.6396 23.0676 46.2634 24.1965 46.759C25.3254 47.2546 26.7599 47.5016 28.5 47.5C30.2401 47.4984 31.6754 47.2514 32.8059 46.759C33.9364 46.2666 35.2521 45.6427 36.7531 44.8875C38.8511 45.7979 40.7811 46.4613 42.5434 46.8778C44.3056 47.2942 46.136 47.5016 48.0344 47.5H49.875V52.25H48.0344C46.0948 52.25 44.2051 52.0719 42.3653 51.7156C40.5254 51.3594 38.7141 50.825 36.9313 50.1125C35.3479 50.8646 33.9031 51.399 32.5969 51.7156C31.2906 52.0323 29.925 52.1906 28.5 52.1906C27.075 52.1906 25.7197 52.0323 24.434 51.7156C23.1484 51.399 21.7131 50.8646 20.1281 50.1125C18.3469 50.825 16.5364 51.3594 14.6965 51.7156C12.8567 52.0719 10.9662 52.25 9.02502 52.25ZM22.2656 40.375L19.5938 38C18.525 39.0687 17.328 39.9792 16.0028 40.7313C14.6775 41.4833 13.262 42.0177 11.7563 42.3344L6.7094 26.125C6.51148 25.4521 6.57086 24.8385 6.88752 24.2844C7.20419 23.7302 7.69898 23.3542 8.3719 23.1562L11.875 22.2063V14.25C11.875 12.9438 12.3405 11.8259 13.2715 10.8965C14.2025 9.96708 15.3204 9.50158 16.625 9.5H22.5625V4.75H34.4375V9.5H40.375C41.6813 9.5 42.7999 9.9655 43.7309 10.8965C44.6619 11.8275 45.1266 12.9453 45.125 14.25V22.2063L48.6282 23.1562C49.3011 23.3542 49.7959 23.7302 50.1125 24.2844C50.4292 24.8385 50.4886 25.4521 50.2906 26.125L45.2438 42.3344C43.7396 42.0177 42.3249 41.4833 40.9996 40.7313C39.6744 39.9792 38.4766 39.0687 37.4063 38L34.7344 40.375C32.9531 41.9583 30.875 42.75 28.5 42.75C26.125 42.75 24.0469 41.9583 22.2656 40.375ZM16.625 20.9594L28.5 17.8125L40.375 20.9594V14.25H16.625V20.9594Z" fill="#C0C049"/>
</svg>
